Coordinates
version=1
nRows=12
nColumns=24
inDegrees=yes

Units are S.I. units (second, meters, Newtons, ...)
Angles are in degrees.

endheader
time	pelvis_tilt	pelvis_list	pelvis_rotation	pelvis_tx	pelvis_ty	pelvis_tz	hip_flexion_r	hip_adduction_r	hip_rotation_r	knee_angle_r	ankle_angle_r	subtalar_angle_r	mtp_angle_r	hip_flexion_l	hip_adduction_l	hip_rotation_l	knee_angle_l	ankle_angle_l	subtalar_angle_l	mtp_angle_l	lumbar_extension	lumbar_bending	lumbar_rotation
      0.89200000	     -0.71381954	     -3.49879175	      4.70297567	     -0.39602582	      0.90960192	      0.33583090	     12.46598549	      9.91117939	     -4.68774837	    -21.64560907	      9.44550850	     -2.75071055	      3.07628959	     15.18637765	     -8.79897704	     -4.72902579	    -67.79471457	      6.61974834	     -3.10102474	      3.94984976	     -3.92664841	      6.99126497	     -2.68589401
      0.89616667	     -0.69810031	     -3.39001636	      4.43750310	     -0.39132784	      0.91058414	      0.33639507	     11.86666545	      9.89341222	     -4.42442459	    -21.18608703	      9.44814981	     -2.61603680	      3.13032073	     15.73081783	     -8.65083302	     -4.98917538	    -67.35753641	      6.97685144	     -3.27465383	      3.84570991	     -4.00454275	      6.87887917	     -2.49482849
      0.90033333	     -0.66821100	     -3.29920738	      4.16871329	     -0.38659932	      0.91154682	      0.33698970	     11.23538874	      9.89630569	     -4.16166115	    -20.68490324	      9.41616242	     -2.52959557	      3.27772648	     16.24718518	     -8.54181375	     -5.26403237	    -66.87625610	      7.29350909	     -3.38899707	      3.53849900	     -4.06832670	      6.77314125	     -2.10606562
      0.90450000	     -0.61631178	     -3.17903906	      3.88085822	     -0.38188997	      0.91250946	      0.33757699	     10.59211278	      9.86169204	     -3.88629306	    -20.22185418	      9.47142896	     -2.40321595	      3.33667489	     16.71117712	     -8.39814811	     -5.55919738	    -66.32749383	      7.56274450	     -3.59598918	      3.41489238	     -4.17107986	      6.64488503	     -1.94604351
      0.90866667	     -0.61029369	     -3.07851886	      3.56427059	     -0.37720295	      0.91333038	      0.33820784	     10.01693200	      9.84036624	     -3.60884630	    -19.78470490	      9.47276967	     -2.24557754	      3.36619124	     17.21859928	     -8.29353833	     -5.88886122	    -65.75868890	      7.85725472	     -3.77715005	      3.35298563	     -4.20567502	      6.53695652	     -1.80067042
      0.91283333	     -0.52481280	     -2.97175560	      3.26020157	     -0.37251016	      0.91425927	      0.33882456	      9.32529671	      9.81786146	     -3.29497863	    -19.28633299	      9.49636368	     -2.16484187	      3.43619417	     17.61745582	     -8.17990757	     -6.19480248	    -65.11852771	      8.06233360	     -3.96303979	      3.19668719	     -4.36935175	      6.41923480	     -1.37503002
      0.91700000	     -0.48015232	     -2.87212592	      2.91880046	     -0.36785179	      0.91505654	      0.33948674	      8.70257705	      9.79435618	     -2.97119527	    -18.83203007	      9.50694496	     -2.05205890	      3.50300288	     18.04863768	     -8.09074136	     -6.54514643	    -64.45180127	      8.28000005	     -4.15687586	      3.04571078	     -4.47186645	      6.31053838	     -1.07086067
      0.92116667	     -0.44314302	     -2.79153473	      2.57272507	     -0.36318958	      0.91578574	      0.34016048	      8.08650440	      9.78594811	     -2.64247157	    -18.36829733	      9.46973241	     -1.94457331	      3.63907269	     18.47957284	     -8.03258530	     -6.90124303	    -63.75568354	      8.49869462	     -4.32174323	      2.72789767	     -4.55489145	      6.23305644	     -0.64770962
      0.92533333	     -0.40364862	     -2.68256265	      2.20846940	     -0.35856459	      0.91647519	      0.34082756	      7.49046281	      9.73736044	     -2.30251267	    -17.95936275	      9.53048101	     -1.80519257	      3.68144912	     18.88387963	     -7.93966285	     -7.26956526	    -62.99768174	      8.64870033	     -4.55429097	      2.63130579	     -4.65524467	      6.12349600	     -0.50975546
      0.92950000	     -0.35138514	     -2.59306273	      1.83609296	     -0.35393405	      0.91712751	      0.34151964	      6.87351543	      9.70499649	     -1.96290758	    -17.52859689	      9.55110486	     -1.66146548	      3.72538419	     19.26396479	     -7.88497533	     -7.65696978	    -62.21127763	      8.78107194	     -4.79016495	      2.52843547	     -4.76703970	      6.01692560	     -0.23087308
      0.93366667	     -0.28495821	     -2.51467294	      1.49062588	     -0.34929582	      0.91775068	      0.34218362	      6.22628181	      9.67840437	     -1.63906828	    -17.06212043	      9.58653885	     -1.56094422	      3.79614513	     19.62564916	     -7.83661563	     -8.00700120	    -61.39190440	      8.88394188	     -5.01071427	      2.36246760	     -4.89172074	      5.90903589	      0.19980820
      0.93783333	     -0.25444349	     -2.45378851	      1.11142985	     -0.34469470	      0.91825786	      0.34287331	      5.63800798	      9.66164219	     -1.29089666	    -16.62871923	      9.56689937	     -1.42724143	      3.92472877	     20.01403831	     -7.81922008	     -8.38197251	    -60.54953342	      9.00273815	     -5.20671426	      2.06154201	     -4.97794086	      5.84780614	      0.63483526
